<?xml version="1.0" encoding="utf-8"?>
<!-- Generator: Adobe Illustrator 23.0.1, SVG Export Plug-In . SVG Version: 6.00 Build 0)  -->
<svg version="1.1" id="Layer_1" xmlns="http://www.w3.org/2000/svg" xmlns:xlink="http://www.w3.org/1999/xlink" x="0px" y="0px"
	 viewBox="0 0 345.7 144.7" style="enable-background:new 0 0 345.7 144.7;" xml:space="preserve">
<style type="text/css">
	.st0{display:none;fill:#189CD9;}
	.st1{font-family:'Megrim';}
	.st2{font-size:9px;}
	.st3{fill:#233A85;}
	.st4{font-family:'JuliusSansOne-Regular';}
	.st5{font-size:83.5758px;}
	.st6{letter-spacing:8;}
	.st7{fill:#189CD9;}
</style>
<g>
	<text transform="matrix(1 0 0 1 174.0446 123.6215)" class="st0 st1 st2">Les données au service de la santé</text>
	<text transform="matrix(1 0 0 1 113.7541 97.3348)" class="st3 st4 st5 st6">gil’x</text>
	<g>
		<ellipse transform="matrix(0.9236 -0.3835 0.3835 0.9236 3.9872 77.3978)" class="st3" cx="196.1" cy="28.7" rx="7.1" ry="6.9"/>
	</g>
	<g>
		<path class="st3" d="M93.7,26.2l-1,13.8c-0.2,2.7,2.5,5,5.3,4.4l27.9-5.1c2.4-0.5,2.8-3.6,0.5-4.7l-25-12.2
			C97.9,20.7,94,22.7,93.7,26.2z"/>
		<path class="st3" d="M43.6,103.5c0,0-9.7-18.6,12.7-42.5s35.6-18.9,38.6-18.9c2.9,0,17-1.8,10.3-11.8c-6.7-10-34,0.4-57,26.7
			s-22.6,53.3-15.3,58.8C40.3,121.3,43.6,103.5,43.6,103.5z"/>
		<path class="st7" d="M101.7,63c0,0-16.8,18.9-0.8,37.2s32.1,11.4,35.2,10.8c3.2-0.5,17.8-1.3,7.1,9.1s-36.6,5.5-52.5-14.8
			s-6.3-45.4,3.6-51.8S101.7,63,101.7,63z"/>
		<path class="st7" d="M136.2,122.5l-5.8-10.9c-1.1-2.1,0.2-4.6,2.7-4.8l24.3-2.4c2.1-0.2,3.5,2.2,2.1,3.7l-15.8,15.7
			C141.5,125.9,137.6,125.3,136.2,122.5z"/>
		<path class="st3" d="M108.6,80.2L108.6,80.2c4.7,2.4,3.5,7.7-1.7,7.2l-91.5-7.7c-2.7-0.2-4.8-2.5-4.1-4.5l0,0
			c1.4-4.1,6.2-6.4,11.9-5.7L108.6,80.2z"/>
	</g>
</g>
</svg>
